Coordinates
version=1
nRows=14
nColumns=24
inDegrees=yes

Units are S.I. units (second, meters, Newtons, ...)
Angles are in degrees.

endheader
time	pelvis_tilt	pelvis_list	pelvis_rotation	pelvis_tx	pelvis_ty	pelvis_tz	hip_flexion_r	hip_adduction_r	hip_rotation_r	knee_angle_r	ankle_angle_r	subtalar_angle_r	mtp_angle_r	hip_flexion_l	hip_adduction_l	hip_rotation_l	knee_angle_l	ankle_angle_l	subtalar_angle_l	mtp_angle_l	lumbar_extension	lumbar_bending	lumbar_rotation
      5.18000000	     -8.62002272	     -2.35982198	      6.95675885	     -1.23572002	     -0.02941768	      2.01974466	     32.13052162	     -0.40472047	    -18.14130688	     -5.41194520	      8.43440833	     11.98651070	    -41.05118408	     -5.14333994	     -0.30931293	     -6.44133500	    -13.65812046	     12.23073242	      5.10543064	      9.69482823	      4.22021930	      0.59944804	     -8.03600496
      5.19000000	     -8.50174101	     -2.51977116	      7.20329209	     -1.22209680	     -0.03074621	      2.02046774	     32.27855782	     -0.45978578	    -18.50860004	     -6.86620950	      8.52568439	     11.35264468	    -41.19905922	     -5.43813205	     -0.86419131	     -6.19777152	    -14.94042890	     11.93145530	      5.80600523	      9.74871405	      4.25516096	      0.78557912	     -8.34445492
      5.20000000	     -8.43903117	     -2.79609839	      7.41316210	     -1.20804566	     -0.03212918	      2.02130458	     32.45237347	     -0.36559574	    -18.57590980	     -8.52050730	      8.21584727	     10.22389301	    -41.57686987	     -5.61157608	     -1.56531253	     -5.96330119	    -16.34278005	     11.57344021	      6.62316257	      9.91732308	      4.42309645	      1.08527046	     -8.61418239
      5.21000000	     -8.39465400	     -3.13831660	      7.55026333	     -1.19386236	     -0.03341764	      2.02235959	     32.56172075	     -0.11129069	    -18.31494628	    -10.08978169	      7.34816575	      8.65446997	    -42.09461156	     -5.66280142	     -2.34574844	     -5.79528036	    -17.89944848	     10.99991842	      7.35387729	     10.18261121	      4.62635275	      1.44995353	     -8.94105003
      5.22000000	     -8.40016156	     -3.57967509	      7.48514101	     -1.17948278	     -0.03456199	      2.02393134	     32.61904154	      0.42931012	    -17.76600573	    -11.37253742	      5.95606269	      6.77484095	    -42.98490971	     -5.56526925	     -3.26802038	     -5.95580239	    -19.62095043	     10.17527179	      8.24694304	     10.82099064	      4.91084372	      1.90018190	     -8.99569048
      5.23000000	     -8.43505260	     -4.23432976	      7.28658998	     -1.16500653	     -0.03540510	      2.02562866	     32.61742569	      1.27401637	    -17.23465699	    -12.33488168	      4.19320596	      5.01271793	    -44.26945710	     -5.30358313	     -4.41433671	     -6.26845277	    -21.50169458	      8.96110235	      8.95840240	     12.15173385	      5.25610681	      2.60304589	     -9.01575511
      5.24000000	     -8.44688689	     -4.94621934	      7.15656500	     -1.15064667	     -0.03568865	      2.02723123	     32.55014321	      2.13849361	    -16.88127327	    -13.15219205	      2.51890268	      3.60569117	    -46.30891936	     -4.89670126	     -5.61708643	     -6.47007633	    -23.44233430	      6.70577808	      9.14467597	     16.00415617	      5.56648217	      3.35995447	     -9.16628216
      5.25000000	     -8.53754692	     -5.75472916	      6.85140784	     -1.13622676	     -0.03578351	      2.02903778	     32.62770389	      3.19337562	    -16.44556183	    -14.03976612	      0.85505198	      2.33997047	    -47.12814816	     -4.22212480	     -6.95059074	     -7.00741057	    -25.70667012	      4.37230644	      9.44217184	     18.59966526	      5.96616990	      4.23831441	     -9.15857934
      5.26000000	     -8.65105943	     -6.54889818	      6.52463678	     -1.12177034	     -0.03565096	      2.03082763	     32.75943013	      4.24772112	    -16.02647003	    -15.08168764	     -0.37074825	      1.25036030	    -47.80522791	     -3.34671594	     -8.29113006	     -7.63842541	    -28.13732972	      1.39346726	      9.39824349	     21.95152138	      6.38612219	      5.10738610	     -9.18011220
      5.27000000	     -8.78991432	     -7.28251373	      6.18324217	     -1.10733437	     -0.03539404	      2.03268286	     32.87952561	      5.27925615	    -15.60873978	    -16.18177371	     -1.10398314	      0.18927125	    -48.51489713	     -2.26443895	     -9.59076173	     -8.26695740	    -30.72194508	     -2.18668065	      8.96890734	     25.77728846	      6.80975656	      5.90916614	     -9.15529086
      5.28000000	     -8.93859515	     -8.01400632	      5.86607224	     -1.09303162	     -0.03516580	      2.03456155	     32.90382804	      6.34890993	    -15.12248499	    -17.19258729	     -1.33081455	     -0.91490375	    -49.32483196	     -0.95842788	    -10.90390893	     -8.78454938	    -33.48851608	     -6.21358446	      8.00951562	     29.99011154	      7.21798163	      6.69949581	     -9.19707683
      5.29000000	     -9.11271591	     -8.80500931	      5.54905318	     -1.07892345	     -0.03500231	      2.03654336	     32.79069023	      7.53151028	    -14.61595486	    -17.94620880	     -1.23238403	     -1.98404402	    -50.24504052	      0.57736533	    -12.28781020	     -9.11327536	    -36.42843503	    -10.50346175	      6.60008756	     34.16320574	      7.62688639	      7.53477661	     -9.23046971
      5.30000000	     -9.37213936	     -9.68453677	      5.20824440	     -1.06505908	     -0.03495617	      2.03862213	     32.60219902	      8.83694648	    -14.14511675	    -18.39804630	     -0.96214329	     -2.91268812	    -51.17563255	      2.38549165	    -13.74839372	     -9.20958509	    -39.52375940	    -14.82124997	      4.82798620	     37.67316720	      8.09497226	      8.44506921	     -9.24218423
      5.31000000	     -9.51687555	    -10.72460251	      4.89085278	     -1.05143123	     -0.03486992	      2.04062289	     32.12495698	     10.32153514	    -13.80001639	    -18.50979930	     -0.57054036	     -3.66873786	    -52.25941529	      4.20620319	    -15.34861220	     -9.01369816	    -42.69464383	    -18.82840482	      2.85590402	     40.44053880	      8.42025263	      9.53798284	     -9.20581369
